<?xml version="1.0" encoding="utf-8"?>
<svg version="1.1" id="Layer_1" x="0px" y="0px" width="1425px" height="1187.4px" enable-background="new 0 0 1568 1400" viewBox="0 0 1425 1187.4" preserveAspectRatio="none" xmlns="http://www.w3.org/2000/svg">
  <g transform="matrix(1, 0, 0, 1, 0, -212.5)">
    <g transform="matrix(1.112325, 0, 0, 1, -156.949051, 102.099998)">
      <title>Sky</title>
      <path fill="#7DEEFF" d="M 1422.2 1030.8 C 1422.2 1055.5 1402.2 1075.6 1377.4 1075.6 L 185.9 1075.6 C 161.2 1075.6 141.1 1055.6 141.1 1030.8 L 141.1 110.4 C 141.1 110.4 1421.931 110.4 1422.2 110.4 L 1422.2 1030.8 Z">
        <title>Sky Base</title>
      </path>
      <path fill="#9AF1FF" d="M 204.1 1022.3 L 1288.8 1022.3 C 1341.8 1022.3 1346.4 981 1345.9 961.9 C 1345.9 942.4 1330.1 926.7 1310.7 926.7 L 1285.3 926.7 C 1275.1 926.7 1266.9 918.5 1266.9 908.3 C 1266.9 898.1 1275.1 889.9 1285.3 889.9 L 1287.1 889.9 C 1300.8 889.9 1311.8 878.8 1311.8 865.2 C 1311.8 851.6 1300.7 840.4 1287.1 840.4 L 1279.1 840.4 C 1272.4 840.4 1266.6 836.9 1263.4 831.6 C 1261.7 828.8 1260.7 825.5 1260.7 822 C 1260.7 811.8 1252.5 803.6 1242.3 803.6 L 1234.5 803.6 C 1225.6 803.6 1218.3 796.3 1218.3 787.4 C 1218.3 778.4 1225.6 771.2 1234.5 771.2 L 1269.6 771.2 C 1283.3 771.2 1294.3 760.1 1294.3 746.5 C 1294.3 742.5 1293.3 738.7 1291.6 735.3 C 1287.5 727.3 1279.2 721.8 1269.6 721.8 L 1194.6 721.8 C 1180.9 721.8 1169.9 710.7 1169.9 697.1 C 1169.9 683.4 1181 672.4 1194.6 672.4 L 1201.2 672.4 C 1215.1 672.4 1226.4 661.1 1226.4 647.2 C 1226.4 633.3 1215.1 622 1201.2 622 L 1076.4 622 C 1058.3 622 1043.6 607.3 1043.6 589.2 C 1043.6 571.1 1058.3 556.4 1076.4 556.4 L 1100 556.4 C 1118.1 556.4 1132.7 541.7 1132.7 523.6 C 1132.7 505.5 1118 490.9 1100 490.9 L 973.4 490.9 C 960.9 490.9 950.7 480.7 950.7 468.1 C 950.7 455.6 940.5 445.4 928 445.4 L 724.5 445.4 C 712 445.4 701.8 455.6 701.8 468.1 C 701.8 480.7 691.6 490.9 679.1 490.9 L 513.7 490.9 C 495.6 490.9 480.9 505.6 480.9 523.6 C 480.9 541.7 466.2 556.4 448.1 556.4 L 434.7 556.4 C 416.6 556.4 401.9 571.1 401.9 589.2 C 401.9 607.3 387.2 622 369.1 622 L 352.3 622 C 334.2 622 319.5 636.7 319.5 654.8 C 319.5 672.9 334.2 687.6 352.3 687.6 L 359.1 687.6 C 382.8 687.6 401.9 706.8 401.9 730.4 C 401.9 731.8 401.8 733.1 401.7 734.4 C 399.7 756.2 381.4 773.2 359.1 773.2 L 276 773.2 C 263.5 773.2 253.3 783.4 253.3 795.9 C 253.3 808.5 263.5 818.6 276 818.6 L 313.3 818.6 C 319.7 818.6 325.2 821.8 328.6 826.7 C 330.6 829.6 331.7 833.2 331.7 837 C 331.7 847.2 323.5 855.4 313.3 855.4 L 309.6 855.4 C 291.5 855.4 276.8 870.1 276.8 888.2 C 276.8 906.3 291.5 921 309.6 921 L 335.6 921 C 345.7 921 354 929.2 354 939.4 C 354 949.6 345.8 957.8 335.6 957.8 L 210.4 957.8 C 192.3 957.8 177.6 972.5 177.6 990.6 C 177.6 1006.1 189 1019.4 204.1 1022.3 Z">
        <title>Light Sky</title>
      </path>
      <g>
        <title>Clouds</title>
        <path fill="#FFFFFF" d="M 1325.9 519.4 L 1218.6 519.4 C 1210.7 519.4 1204.3 525.8 1204.3 533.7 C 1204.3 540 1199.1 545.2 1192.8 545.2 L 1185.6 545.2 C 1177.7 545.2 1171.3 551.6 1171.3 559.5 C 1171.3 567.4 1177.7 573.8 1185.6 573.8 L 1232.8 573.8 C 1240.7 573.8 1247.1 567.4 1247.1 559.5 C 1247.1 553.1 1252.3 548 1258.6 548 L 1325.9 548 C 1333.8 548 1340.2 541.6 1340.2 533.7 C 1340.2 525.8 1333.8 519.4 1325.9 519.4 Z"/>
        <path fill="#FFFFFF" d="M 358.7 241.8 L 495.2 241.8 C 505.2 241.8 513.4 249.9 513.4 260 C 513.4 268.1 520 274.7 528.1 274.7 L 537.2 274.7 C 547.2 274.7 555.4 282.8 555.4 292.9 C 555.4 302.9 547.3 311.1 537.2 311.1 L 477.2 311.1 C 467.2 311.1 459 303 459 292.9 C 459 284.8 452.4 278.2 444.3 278.2 L 358.7 278.2 C 348.7 278.2 340.5 270.1 340.5 260 C 340.6 249.9 348.7 241.8 358.7 241.8 Z"/>
        <path fill="#FFFFFF" d="M 344.2 493.9 L 277.4 493.9 C 266.6 493.9 257.8 502.7 257.8 513.5 C 257.8 524.3 266.6 533.1 277.4 533.1 L 344.2 533.1 C 355 533.1 363.8 524.3 363.8 513.5 C 363.8 502.7 355 493.9 344.2 493.9 Z"/>
        <path fill="#FFFFFF" d="M 1268.8 408.7 L 1191.5 408.7 C 1179.3 408.7 1169.5 418.6 1169.5 430.7 C 1169.5 442.8 1179.4 452.7 1191.5 452.7 L 1268.8 452.7 C 1281 452.7 1290.8 442.8 1290.8 430.7 C 1290.8 418.6 1280.9 408.7 1268.8 408.7 Z"/>
        <path fill="#FFFFFF" d="M 450.8 383.7 L 400.6 383.7 C 393.8 383.7 388.3 378.2 388.3 371.4 C 388.3 362.5 381.1 355.3 372.2 355.3 L 317 355.3 C 308.1 355.3 300.9 362.5 300.9 371.4 C 300.9 378.2 295.4 383.7 288.6 383.7 L 237.3 383.7 C 228.4 383.7 221.2 390.9 221.2 399.8 C 221.2 408.7 228.4 415.9 237.3 415.9 L 450.8 415.9 C 459.7 415.9 466.9 408.7 466.9 399.8 C 466.9 390.9 459.7 383.7 450.8 383.7 Z"/>
        <path fill="#FFFFFF" d="M 1158.4 343.8 C 1158.4 336.7 1164.2 330.9 1171.3 330.9 L 1267.1 330.9 C 1276 330.9 1283.2 323.7 1283.2 314.8 C 1283.2 305.9 1276 298.7 1267.1 298.7 L 1245.8 298.7 C 1238.7 298.7 1232.9 292.9 1232.9 285.8 C 1232.9 276.9 1225.7 269.7 1216.8 269.7 L 1156.5 269.7 C 1147.6 269.7 1140.4 276.9 1140.4 285.8 C 1140.4 292.9 1134.6 298.7 1127.5 298.7 L 1039.4 298.7 C 1030.5 298.7 1023.3 305.9 1023.3 314.8 C 1023.3 323.7 1030.5 330.9 1039.4 330.9 L 1053.1 330.9 C 1060.2 330.9 1066 336.7 1066 343.8 C 1066 352.7 1073.2 359.9 1082.1 359.9 L 1142.4 359.9 C 1151.2 359.9 1158.4 352.7 1158.4 343.8 Z"/>
      </g>
    </g>
    <g transform="matrix(1, 0, 0, 1, -71.500038, 102.099998)">
      <title>Well</title>
      <path fill="#A7A9AC" d="M961.6,462.7c0,2.7-2.2,4.9-4.9,4.9H684.2c-2.7,0-4.9-2.2-4.9-4.9l0,0c0-2.7,2.2-4.9,4.9-4.9h272.5 C959.4,457.8,961.6,460,961.6,462.7L961.6,462.7z"/>
      <path fill="#A7A9AC" d="M1026.3,495.1c0,2.7-2.2,4.9-4.9,4.9h-64.6c-2.7,0-4.9-2.2-4.9-4.9l0,0c0-2.7,2.2-4.9,4.9-4.9h64.6 C1024.1,490.2,1026.3,492.4,1026.3,495.1L1026.3,495.1z"/>
      <g>
        <path fill="#BCBEC0" d="M658.7,760.4v-15h-84v30.5h-38.2v30.5h-38.2v30.5h-38.2v30.5h-38.2v30.5h-38.2v30.5h-38.2v30.5h-38.2 v30.5h46.1L512,836.5C512,836.5,577.6,767.8,658.7,760.4z"/>
        <path fill="#A7A9AB" d="M512,836.5L353.1,989.2h70.5l192.2-190l42.9-28.9v-9.9C577.6,767.8,512,836.5,512,836.5z"/>
      </g>
      <g>
        <path fill="#6C904C" d="M1112.7,854.9c0,0-82.7-90.2-177.9-90.2h-125h-125c-95.1,0-177.9,90.2-177.9,90.2L382.8,979.1l847.3-6.8 L1112.7,854.9z"/>
        <polygon fill="#638546" points="382.8,979.1 372.7,989.2 1247,989.2 1230.1,972.3 &#9;&#9;&#9;"/>
      </g>
      <rect x="658.7" y="745.4" fill="#FF7A60" width="300.4" height="23"/>
      <path fill="#5F8043" d="M824.2,828.2c0,7.2-5.8,13.1-13.1,13.1H634.5c-7.2,0-13.1-5.8-13.1-13.1l0,0c0-7.2,5.8-13.1,13.1-13.1 h176.6C818.3,815.1,824.2,820.9,824.2,828.2L824.2,828.2z"/>
      <path fill="#5F8043" d="M1011.3,880.4c0,7.2-5.8,13.1-13.1,13.1h-278c-7.2,0-13.1-5.8-13.1-13.1l0,0c0-7.2,5.8-13.1,13.1-13.1h278 C1005.5,867.3,1011.3,873.2,1011.3,880.4L1011.3,880.4z"/>
      <path fill="#5F8043" d="M941.4,828.2c0,7.2-5.8,13.1-13.1,13.1h-58.8c-7.2,0-13.1-5.8-13.1-13.1l0,0c0-7.2,5.8-13.1,13.1-13.1 h58.8C935.5,815.1,941.4,820.9,941.4,828.2L941.4,828.2z"/>
      <path fill="#5F8043" d="M652.2,934.3c0-7.2,5.8-13.1,13.1-13.1h176.6c7.2,0,13.1,5.8,13.1,13.1l0,0c0,7.2-5.8,13.1-13.1,13.1 H665.3C658.1,947.4,652.2,941.6,652.2,934.3L652.2,934.3z"/>
      <path fill="#5F8043" d="M535,934.3c0-7.2,5.8-13.1,13.1-13.1h58.8c7.2,0,13.1,5.8,13.1,13.1l0,0c0,7.2-5.8,13.1-13.1,13.1h-58.8 C540.8,947.4,535,941.6,535,934.3L535,934.3z"/>
      <path fill="#5F8043" d="M1062.2,880.4c0,7.2-5.8,13.1-13.1,13.1c-7.2,0-13.1-5.8-13.1-13.1s5.8-13.1,13.1-13.1 C1056.3,867.3,1062.2,873.2,1062.2,880.4z"/>
      <circle fill="#5F8043" cx="901.7" cy="934.3" r="13.1"/>
      <rect x="683" y="989.2" fill="#F0735A" width="67.2" height="17.4"/>
      <rect x="750.2" y="989.2" fill="#FF7A60" width="67.2" height="17.4"/>
      <rect x="347.2" y="989.2" fill="#FF7A60" width="67.2" height="17.4"/>
      <rect x="274.4" y="989.2" fill="#F0735A" width="72.8" height="17.4"/>
      <rect x="548.7" y="989.2" fill="#F0735A" width="67.2" height="17.4"/>
      <rect x="414.3" y="989.2" fill="#F0735A" width="67.2" height="17.4"/>
      <rect x="481.5" y="989.2" fill="#FF7A60" width="67.2" height="17.4"/>
      <rect x="615.8" y="989.2" fill="#FF7A60" width="67.2" height="17.4"/>
      <rect x="1153.1" y="989.2" fill="#FF7A60" width="67.2" height="17.4"/>
      <rect x="1220.3" y="989.2" fill="#F0735A" width="70.9" height="17.4"/>
      <rect x="1086" y="989.2" fill="#F0735A" width="67.2" height="17.4"/>
      <rect x="951.6" y="989.2" fill="#F0735A" width="67.2" height="17.4"/>
      <rect x="884.5" y="989.2" fill="#FF7A60" width="67.2" height="17.4"/>
      <rect x="817.3" y="989.2" fill="#F0735A" width="67.2" height="17.4"/>
      <rect x="1018.8" y="989.2" fill="#FF7A60" width="67.2" height="17.4"/>
      <rect x="847.8" y="1006.6" fill="#EB7058" width="67.2" height="17.4"/>
      <rect x="915" y="1006.6" fill="#FF7A60" width="67.2" height="17.4"/>
      <rect x="780.6" y="1006.6" fill="#FF7A60" width="67.2" height="17.4"/>
      <rect x="982.1" y="1006.6" fill="#EB7058" width="67.2" height="17.4"/>
      <rect x="1116.4" y="1006.6" fill="#EB7058" width="67.2" height="17.4"/>
      <rect x="1183.6" y="1006.6" fill="#FF7A60" width="70.9" height="17.4"/>
      <rect x="713.5" y="1006.6" fill="#EB7058" width="67.2" height="17.4"/>
      <rect x="718.8" y="745.4" fill="#EB7058" width="60.1" height="23"/>
      <rect x="839" y="745.4" fill="#EB7058" width="60.1" height="23"/>
      <rect x="1049.3" y="1006.6" fill="#FF7A60" width="67.2" height="17.4"/>
      <rect x="237.7" y="1006.6" fill="#FF7A60" width="72.8" height="17.4"/>
      <rect x="646.3" y="1006.6" fill="#FF7A60" width="67.2" height="17.4"/>
      <rect x="444.8" y="1006.6" fill="#EB7058" width="67.2" height="17.4"/>
      <rect x="310.5" y="1006.6" fill="#EB7058" width="67.2" height="17.4"/>
      <rect x="1254.5" y="1006.6" fill="#EB7058" width="67.2" height="17.4"/>
      <rect x="377.7" y="1006.6" fill="#FF7A60" width="67.2" height="17.4"/>
      <rect x="579.1" y="1006.6" fill="#EB7058" width="67.2" height="17.4"/>
      <rect x="512" y="1006.6" fill="#FF7A60" width="67.2" height="17.4"/>
      <path fill="#E6E7E8" d="M947.9,575.7c0-5.8-4.7-10.6-10.6-10.6H675.6c-5.8,0-10.6,4.7-10.6,10.6l0,0c0,5.8,4.7,10.6,10.6,10.6 h261.8C943.2,586.2,947.9,581.5,947.9,575.7L947.9,575.7z"/>
      <rect x="681.2" y="710.6" fill="#D1D3D4" width="250.6" height="34.8"/>
      <rect x="684.8" y="628.5" fill="#E6E7E8" width="243.4" height="82.1"/>
      <path fill="#D1D3D4" d="M775.3,652.8c0,4.5-3.5,8.1-7.9,8.1h-48.9c-4.3,0-7.8-3.6-7.8-8.1l0,0c0-4.5,3.5-8.1,7.8-8.1h48.9 C771.8,644.7,775.3,648.3,775.3,652.8L775.3,652.8z"/>
      <path fill="#D1D3D4" d="M807.6,684.5c0,4.5-3.5,8.1-7.9,8.1h-48.9c-4.3,0-7.9-3.6-7.9-8.1l0,0c0-4.5,3.5-8.1,7.9-8.1h48.9 C804.1,676.4,807.6,680,807.6,684.5L807.6,684.5z"/>
      <path fill="#D1D3D4" d="M874.8,652.8c0,4.5-3.5,8.1-7.9,8.1h-48.9c-4.3,0-7.9-3.6-7.9-8.1l0,0c0-4.5,3.5-8.1,7.9-8.1H867 C871.3,644.7,874.8,648.3,874.8,652.8L874.8,652.8z"/>
      <path fill="#D1D3D4" d="M907.2,684.5c0,4.5-3.5,8.1-7.9,8.1h-48.9c-4.3,0-7.8-3.6-7.8-8.1l0,0c0-4.5,3.5-8.1,7.8-8.1h48.9 C903.7,676.4,907.2,680,907.2,684.5L907.2,684.5z"/>
      <g>
        <polygon fill="#C2C3C4" points="931.8,586.2 681.2,586.2 681.2,591.2 931.8,594.2 &#9;&#9;&#9;"/>
        <polygon fill="#D1D3D4" points="681.2,591.2 681.2,628.5 931.8,628.5 931.8,594.2 &#9;&#9;&#9;"/>
      </g>
      <rect x="687.9" y="363.7" fill="#8F6B47" width="16.5" height="201.4"/>
      <rect x="908.5" y="363.7" fill="#8F6B47" width="16.5" height="201.4"/>
      <path fill="#8F6B47" d="M851.2,243.9c-9.1-15.2-25.7-25.3-44.7-25.3s-35.6,10.2-44.7,25.3H851.2z"/>
      <g>
        <path fill="#473E3A" d="M739.4,243.9c0,0-93.1,30.1-116.9,118.7l23,23l23-23l23,23l23-23l23,23c0,0,23-23,23-23l23,23 c0,0,23-23,23-23l0.1,0.1V243.9H739.4z"/>
        <path fill="#3C3431" d="M873.5,243.9h-67v118.8l22.9,22.9c0,0,23-23,23-23l23,23c0,0,23-23,23-23l23,23c0,0,23-23,23-23l23,23 c0,0,23.2-23,23.2-23C966.6,274,873.5,243.9,873.5,243.9z"/>
      </g>
      <rect x="951.9" y="457.8" fill="#A7A9AC" width="9.7" height="42.2"/>
      <rect x="966.9" y="486.6" fill="#8F6B47" width="52.3" height="17.1"/>
      <path fill="#54BCE3" d="M898,517.2c0,2.1-1.7,3.7-3.8,3.7h-52.5c-2.1,0-3.8-1.7-3.8-3.7l0,0c0-2.1,1.7-3.7,3.8-3.7h52.5 C896.3,513.5,898,515.2,898,517.2L898,517.2z"/>
      <g>
        <polygon fill="#4AA6C9" points="892.8,521 843.2,521 843.7,524 892.3,524.7 &#9;&#9;&#9;"/>
        <polygon fill="#50B3D8" points="843.7,524 849.6,565.1 886.4,565.1 892.3,524.7 &#9;&#9;&#9;"/>
      </g>
      <g>
        <path fill="#6F7173" d="M831.5,546.6c-0.8,0-1.6-0.5-1.9-1.3c-0.4-1,0.1-2.2,1.1-2.7l36.5-14.7c1-0.4,2.2,0.1,2.7,1.1 c0.4,1-0.1,2.2-1.1,2.7l-36.5,14.7C832,546.5,831.8,546.6,831.5,546.6z"/>
      </g>
      <g>
        <rect x="724.8" y="430.8" fill="#473E3A" width="55.9" height="64.4"/>
        <polygon fill="#3D3732" points="780.6,430.8 780.6,495.1 843.6,495.1 843.3,430.8 &#9;&#9;&#9;"/>
        <polygon fill="#473E3A" points="888.3,430.8 843.3,430.8 843.6,495.1 888.3,495.1 &#9;&#9;&#9;"/>
      </g>
      <path fill="#D1C696" d="M785.6,499.8c0,2.7-2.2,5-5,5l0,0c-2.7,0-5-2.2-5-5v-71.5c0-2.7,2.2-5,5-5l0,0c2.7,0,5,2.2,5,5V499.8z"/>
      <path fill="#D1C696" d="M798.7,499.8c0,2.7-2.2,5-5,5l0,0c-2.7,0-5-2.2-5-5v-71.5c0-2.7,2.2-5,5-5l0,0c2.7,0,5,2.2,5,5V499.8z"/>
      <path fill="#D1C696" d="M811.7,499.8c0,2.7-2.2,5-5,5l0,0c-2.7,0-5-2.2-5-5v-71.5c0-2.7,2.2-5,5-5l0,0c2.7,0,5,2.2,5,5V499.8z"/>
      <path fill="#D1C696" d="M824.8,499.8c0,2.7-2.2,5-5,5l0,0c-2.7,0-5-2.2-5-5v-71.5c0-2.7,2.2-5,5-5l0,0c2.7,0,5,2.2,5,5V499.8z"/>
      <path fill="#D1C696" d="M837.8,499.8c0,2.7-2.2,5-5,5l0,0c-2.7,0-5-2.2-5-5v-71.5c0-2.7,2.2-5,5-5l0,0c2.7,0,5,2.2,5,5V499.8z"/>
    </g>
    <g transform="matrix(1.003239, 0, 0, 1.003239, -71.73159, 98.783768)">
      <title>Ground</title>
      <path fill="#3E876F" d="M 1491.552 1068.787 C 1492.348 1135.528 1491.526 1276.656 1491.526 1296.944 C 1491.526 1296.944 71.5 1296.944 71.525 1296.943 C 71.5 1296.943 71.5 1297.06 71.5 1068.761 C 71.525 1044.093 91.519 1023.999 116.313 1023.999 L 1446.764 1023.999 C 1471.457 1023.999 1491.526 1044.029 1491.552 1068.787 Z">
        <title>Ground Base</title>
      </path>
      <g>
        <title>Ground Details</title>
        <path fill="#36735F" d="M 601.4 1083.6 C 601.4 1093.2 593.6 1101.1 583.9 1101.1 L 158.6 1101.1 C 149 1101.1 141.1 1093.3 141.1 1083.6 L 141.1 1083.6 C 141.1 1074 148.9 1066.1 158.6 1066.1 L 584 1066.1 C 593.6 1066.1 601.4 1073.9 601.4 1083.6 L 601.4 1083.6 Z"/>
        <path fill="#36735F" d="M 490.8 1162.3 C 490.8 1171.9 483 1179.8 473.3 1179.8 L 340.3 1179.8 C 330.7 1179.8 322.9 1172 322.9 1162.3 L 322.9 1162.3 C 322.9 1152.7 330.7 1144.8 340.3 1144.8 L 473.4 1144.8 C 483 1144.9 490.8 1152.7 490.8 1162.3 L 490.8 1162.3 Z"/>
        <path fill="#36735F" d="M 757.5 1162.3 C 757.5 1171.9 749.7 1179.8 740 1179.8 L 573 1179.8 C 563.4 1179.8 555.5 1172 555.5 1162.3 L 555.5 1162.3 C 555.5 1152.7 563.3 1144.8 573 1144.8 L 740 1144.8 C 749.6 1144.9 757.5 1152.7 757.5 1162.3 L 757.5 1162.3 Z"/>
        <path fill="#36735F" d="M 697 1237.5 C 697 1247.1 689.2 1254.9 679.5 1254.9 L 499.5 1254.9 C 489.9 1254.9 482 1247.1 482 1237.5 L 482 1237.5 C 482 1227.9 489.8 1220 499.5 1220 L 679.5 1220 C 689.1 1220 697 1227.8 697 1237.5 L 697 1237.5 Z"/>
        <path fill="#36735F" d="M 874.7 1083.6 C 874.7 1093.2 866.9 1101.1 857.2 1101.1 L 677.2 1101.1 C 667.6 1101.1 659.7 1093.3 659.7 1083.6 L 659.7 1083.6 C 659.7 1074 667.5 1066.1 677.2 1066.1 L 857.2 1066.1 C 866.9 1066.1 874.7 1073.9 874.7 1083.6 L 874.7 1083.6 Z"/>
        <path fill="#36735F" d="M 1056.2 1083.6 C 1056.2 1093.2 1048.4 1101.1 1038.7 1101.1 L 948.7 1101.1 C 939.1 1101.1 931.3 1093.3 931.3 1083.6 L 931.3 1083.6 C 931.3 1074 939.1 1066.1 948.7 1066.1 L 1038.7 1066.1 C 1048.4 1066.1 1056.2 1073.9 1056.2 1083.6 L 1056.2 1083.6 Z"/>
        <path fill="#36735F" d="M 857.9 1162.3 C 857.9 1171.9 850.1 1179.8 840.4 1179.8 L 821.9 1179.8 C 812.3 1179.8 804.5 1172 804.5 1162.3 L 804.5 1162.3 C 804.5 1152.7 812.3 1144.8 821.9 1144.8 L 840.4 1144.8 C 850 1144.9 857.9 1152.7 857.9 1162.3 L 857.9 1162.3 Z"/>
      </g>
    </g>
  </g>
</svg>